<svg width="1600" height="900" viewBox="0 0 1600 900" xmlns="http://www.w3.org/2000/svg">  <defs>    <marker id="arrow" markerWidth="12" markerHeight="12" refX="10" refY="6" orient="auto">      <path d="M2,2 L10,6 L2,10 Z" fill="#CBD5E1"/>    </marker>    <linearGradient id="riskGrad" x1="0%" y1="0%" x2="100%" y2="0%">      <stop offset="0%" stop-color="#0F766E"/>      <stop offset="55%" stop-color="#EA580C"/>      <stop offset="100%" stop-color="#DC2626"/>    </linearGradient>    <filter id="shadow" x="-20%" y="-20%" width="140%" height="140%">      <feDropShadow dx="0" dy="8" stdDeviation="8" flood-color="#0F172A" flood-opacity="0.12"/>    </filter>  </defs>  <rect width="100%" height="100%" fill="#F8FAFC"/>  <text x="80" y="72" font-size="42" font-weight="700" fill="#0F172A" font-family="Arial, Helvetica, sans-serif">    AI-Path recurrence model training repository  </text>  <text x="80" y="116" font-size="24" fill="#475569" font-family="Arial, Helvetica, sans-serif">    Whole-slide image AI pathology biomarker training for breast cancer recurrence risk  </text>  <g filter="url(#shadow)">    <rect x="80" y="170" width="1440" height="430" rx="28" fill="#FFFFFF" stroke="#E2E8F0" stroke-width="2"/>    <!-- Pathology slide / WSI -->    <rect x="120" y="245" width="205" height="245" rx="22" fill="#FFFFFF" stroke="#BFDBFE" stroke-width="3"/>    <rect x="168" y="272" width="112" height="76" rx="8" fill="#FFFFFF" stroke="#2563EB" stroke-width="4"/>    <rect x="176" y="281" width="96" height="58" rx="5" fill="#FCE7F3" stroke="#E879F9" stroke-width="2"/>    <path d="M185 315             C179 297, 194 288, 209 297             C222 278, 253 291, 247 315             C266 327, 249 343, 230 336             C215 350, 187 340, 185 315 Z"          fill="#EC4899" opacity="0.55"/>    <path d="M205 311             C210 299, 228 300, 235 312             C243 327, 225 336, 214 328             C204 324, 201 318, 205 311 Z"          fill="#7C3AED" opacity="0.35"/>    <circle cx="196" cy="307" r="4" fill="#7C2D12" opacity="0.65"/>    <circle cx="222" cy="296" r="4" fill="#7C2D12" opacity="0.65"/>    <circle cx="242" cy="322" r="4" fill="#7C2D12" opacity="0.65"/>    <circle cx="214" cy="331" r="4" fill="#7C2D12" opacity="0.65"/>    <circle cx="231" cy="313" r="3" fill="#7C2D12" opacity="0.65"/>    <rect x="168" y="356" width="112" height="28" rx="5" fill="#DBEAFE" stroke="#93C5FD" stroke-width="2"/>    <line x1="180" y1="365" x2="236" y2="365" stroke="#2563EB" stroke-width="3" stroke-linecap="round"/>    <line x1="180" y1="375" x2="258" y2="375" stroke="#2563EB" stroke-width="3" stroke-linecap="round" opacity="0.65"/>    <text x="222" y="420" text-anchor="middle" font-size="23" font-weight="700" fill="#0F172A" font-family="Arial">      Digitized H&amp;E WSI    </text>    <text x="222" y="451" text-anchor="middle" font-size="18" fill="#475569" font-family="Arial">      FFPE breast cancer    </text>    <text x="222" y="473" text-anchor="middle" font-size="18" fill="#475569" font-family="Arial">      slides    </text>    <line x1="337" y1="360" x2="422" y2="360" stroke="#CBD5E1" stroke-width="5" stroke-linecap="round" marker-end="url(#arrow)"/>    <!-- Tile extraction -->    <rect x="430" y="245" width="205" height="245" rx="22" fill="#FFFFFF" stroke="#99F6E4" stroke-width="3"/>    <rect x="492" y="280" width="18" height="18" rx="3" fill="#DBEAFE" stroke="#CBD5E1"/>    <rect x="515" y="280" width="18" height="18" rx="3" fill="#CCFBF1" stroke="#CBD5E1"/>    <rect x="538" y="280" width="18" height="18" rx="3" fill="#FFEDD5" stroke="#CBD5E1"/>    <rect x="561" y="280" width="18" height="18" rx="3" fill="#EDE9FE" stroke="#CBD5E1"/>    <rect x="492" y="303" width="18" height="18" rx="3" fill="#CCFBF1" stroke="#CBD5E1"/>    <rect x="515" y="303" width="18" height="18" rx="3" fill="#FFEDD5" stroke="#CBD5E1"/>    <rect x="538" y="303" width="18" height="18" rx="3" fill="#EDE9FE" stroke="#CBD5E1"/>    <rect x="561" y="303" width="18" height="18" rx="3" fill="#DBEAFE" stroke="#CBD5E1"/>    <rect x="492" y="326" width="18" height="18" rx="3" fill="#FFEDD5" stroke="#CBD5E1"/>    <rect x="515" y="326" width="18" height="18" rx="3" fill="#EDE9FE" stroke="#CBD5E1"/>    <rect x="538" y="326" width="18" height="18" rx="3" fill="#DBEAFE" stroke="#CBD5E1"/>    <rect x="561" y="326" width="18" height="18" rx="3" fill="#CCFBF1" stroke="#CBD5E1"/>    <text x="532" y="403" text-anchor="middle" font-size="22" font-weight="700" fill="#0F172A" font-family="Arial">      Tile extraction    </text>    <text x="532" y="431" text-anchor="middle" font-size="22" font-weight="700" fill="#0F172A" font-family="Arial">      + QC    </text>    <text x="532" y="461" text-anchor="middle" font-size="18" fill="#475569" font-family="Arial">      10X tiles; tissue    </text>    <text x="532" y="482" text-anchor="middle" font-size="18" fill="#475569" font-family="Arial">      + blur filtering    </text>    <line x1="648" y1="360" x2="733" y2="360" stroke="#CBD5E1" stroke-width="5" stroke-linecap="round" marker-end="url(#arrow)"/>    <!-- Foundation model -->    <rect x="740" y="245" width="205" height="245" rx="22" fill="#FFFFFF" stroke="#DDD6FE" stroke-width="3"/>    <circle cx="797" cy="300" r="8" fill="#7C3AED" opacity="0.35"/>    <circle cx="819" cy="324" r="8" fill="#7C3AED" opacity="0.42"/>    <circle cx="841" cy="312" r="8" fill="#7C3AED" opacity="0.49"/>    <circle cx="863" cy="334" r="8" fill="#7C3AED" opacity="0.56"/>    <circle cx="885" cy="306" r="8" fill="#7C3AED" opacity="0.63"/>    <circle cx="907" cy="322" r="8" fill="#7C3AED" opacity="0.70"/>    <path d="M797 300 C830 339, 855 296, 907 322" fill="none" stroke="#7C3AED" stroke-width="4" stroke-dasharray="6 6"/>    <text x="842" y="397" text-anchor="middle" font-size="22" font-weight="700" fill="#0F172A" font-family="Arial">      Foundation-model    </text>    <text x="842" y="425" text-anchor="middle" font-size="22" font-weight="700" fill="#0F172A" font-family="Arial">      features    </text>    <text x="842" y="457" text-anchor="middle" font-size="18" fill="#475569" font-family="Arial">      H-optimus-0    </text>    <text x="842" y="479" text-anchor="middle" font-size="18" fill="#475569" font-family="Arial">      embeddings    </text>    <line x1="958" y1="360" x2="1043" y2="360" stroke="#CBD5E1" stroke-width="5" stroke-linecap="round" marker-end="url(#arrow)"/>    <!-- Model -->    <rect x="1050" y="245" width="205" height="245" rx="22" fill="#FFFFFF" stroke="#BBF7D0" stroke-width="3"/>    <circle cx="1152" cy="315" r="42" fill="#DCFCE7" stroke="#16A34A" stroke-width="4"/>    <line x1="1132" y1="306" x2="1154" y2="299" stroke="#16A34A" stroke-width="3"/>    <line x1="1154" y1="299" x2="1174" y2="308" stroke="#16A34A" stroke-width="3"/>    <line x1="1132" y1="306" x2="1140" y2="329" stroke="#16A34A" stroke-width="3"/>    <line x1="1140" y1="329" x2="1167" y2="331" stroke="#16A34A" stroke-width="3"/>    <line x1="1174" y1="308" x2="1167" y2="331" stroke="#16A34A" stroke-width="3"/>    <circle cx="1132" cy="306" r="6" fill="#16A34A"/>    <circle cx="1154" cy="299" r="6" fill="#16A34A"/>    <circle cx="1174" cy="308" r="6" fill="#16A34A"/>    <circle cx="1140" cy="329" r="6" fill="#16A34A"/>    <circle cx="1167" cy="331" r="6" fill="#16A34A"/>    <text x="1152" y="397" text-anchor="middle" font-size="21" font-weight="700" fill="#0F172A" font-family="Arial">      Transformer MIL    </text>    <text x="1152" y="425" text-anchor="middle" font-size="21" font-weight="700" fill="#0F172A" font-family="Arial">      survival model    </text>    <text x="1152" y="457" text-anchor="middle" font-size="18" fill="#475569" font-family="Arial">      Cox proportional    </text>    <text x="1152" y="479" text-anchor="middle" font-size="18" fill="#475569" font-family="Arial">      hazards objective    </text>    <line x1="1268" y1="360" x2="1338" y2="360" stroke="#CBD5E1" stroke-width="5" stroke-linecap="round" marker-end="url(#arrow)"/>    <!-- AI-Path + survival curves -->    <rect x="1345" y="245" width="150" height="245" rx="22" fill="#FFFFFF" stroke="#FED7AA" stroke-width="3"/>    <text x="1420" y="300" text-anchor="middle" font-size="33" font-weight="800" fill="#0F172A" font-family="Arial">      AI-Path    </text>    <text x="1420" y="329" text-anchor="middle" font-size="19" fill="#475569" font-family="Arial">      recurrence risk    </text>    <rect x="1370" y="350" width="100" height="14" rx="7" fill="url(#riskGrad)"/>    <circle cx="1445" cy="357" r="11" fill="#FFFFFF" stroke="#DC2626" stroke-width="4"/>    <!-- Mini survival plot -->    <line x1="1372" y1="448" x2="1470" y2="448" stroke="#94A3B8" stroke-width="3"/>    <line x1="1372" y1="448" x2="1372" y2="386" stroke="#94A3B8" stroke-width="3"/>    <!-- Low risk curve -->    <path d="M1374 397 L1395 398 L1395 400 L1418 401 L1418 403 L1442 405 L1442 407 L1466 410"          fill="none" stroke="#0F766E" stroke-width="4" stroke-linecap="round" stroke-linejoin="round"/>    <!-- High risk curve -->    <path d="M1374 399 L1395 405 L1395 414 L1418 420 L1418 431 L1442 438 L1442 445 L1466 448"          fill="none" stroke="#DC2626" stroke-width="4" stroke-linecap="round" stroke-linejoin="round"/>    <text x="1382" y="382" font-size="13" fill="#0F766E" font-family="Arial">low risk</text>    <text x="1410" y="468" font-size="13" fill="#DC2626" font-family="Arial">high risk</text>  </g>  <!-- Bottom summary boxes -->  <g filter="url(#shadow)">    <rect x="80" y="640" width="520" height="170" rx="24" fill="#EFF6FF" stroke="#BFDBFE" stroke-width="2"/>    <text x="120" y="692" font-size="30" font-weight="700" fill="#1D4ED8" font-family="Arial">      Training focus    </text>    <text x="120" y="735" font-size="23" fill="#0F172A" font-family="Arial">      Train AI-Path in CALGB 9344 using    </text>    <text x="120" y="766" font-size="23" fill="#0F172A" font-family="Arial">      digitized H&amp;E WSI and distant    </text>    <text x="120" y="797" font-size="23" fill="#0F172A" font-family="Arial">      recurrence outcomes.    </text>    <rect x="650" y="640" width="870" height="170" rx="24" fill="#ECFDF5" stroke="#A7F3D0" stroke-width="2"/>    <text x="690" y="692" font-size="30" font-weight="700" fill="#0F766E" font-family="Arial">      Validation context included in the manuscript    </text>    <text x="690" y="735" font-size="23" fill="#0F172A" font-family="Arial">      Locked AI-Path predictions were evaluated in independent cohorts:    </text>    <text x="690" y="766" font-size="23" fill="#0F172A" font-family="Arial">      TAILORx, the multi-site Chicago cohort, and MDX-BRCA.    </text>    <text x="690" y="797" font-size="21" fill="#475569" font-family="Arial">      This repository focuses on AI pathology recurrence model training code.    </text>  </g></svg>
